# xmcd CD database file
#
# Track frame offsets:
#	150
#	9290
#	25197
#	40120
#	60155
#	73617
#	87692
#	106097
#	125485
#	139705
#	158905
#	172815
#
# Disc length: 2421 seconds
#
# Revision: 2
# Processed by: cddbd v1.5PL3 Copyright (c) Steve Scherf et al.
# Submitted via: CDex 1.50beta8
#
DISCID=8d09730c
DTITLE=西村由紀江 - Virgin
DYEAR=2000
DGENRE=Instrumental
TTITLE0=pure water
TTITLE1=はじまりの予感
TTITLE2=前向きな瞳
TTITLE3=鏡花水月
TTITLE4=あなたに最高のしあわせを
TTITLE5=すずしい風に吹かれながら
TTITLE6=最果てに揺れる花
TTITLE7=手紙
TTITLE8=よろこびのうた
TTITLE9=恋がくれたもの
TTITLE10=いつまでも
TTITLE11=すき
EXTD=YEAR: 2000
EXTT0=
EXTT1=
EXTT2=
EXTT3=
EXTT4=
EXTT5=
EXTT6=
EXTT7=
EXTT8=
EXTT9=
EXTT10=
EXTT11=
PLAYORDER=
